<?xml version="1.0" encoding="UTF-8"?>
<svg xmlns="http://www.w3.org/2000/svg" width="460" height="161" viewBox="0 0 460 161" fill="none">
  <path fill-rule="evenodd" clip-rule="evenodd" d="M215.731 161C218.529 161 220.798 158.735 220.798 155.941V5.05907C220.798 2.26502 218.529 0 215.731 0H192.046C189.247 0 186.979 2.26502 186.979 5.05907V155.941C186.979 158.735 189.247 161 192.046 161H215.731ZM133.483 37.1194C125.122 34.4361 116.072 33.1741 106.367 33.1741C105.475 33.1741 104.59 33.1844 103.712 33.205H63.0107C62.0665 33.1948 61.0704 33.201 60.0309 33.2076C49.9783 33.2706 35.8697 33.359 25.4606 18.8402C15.1708 7.24616 -7.52832 18.6424 2.5 37.3283C3.99462 40.1133 6.21622 43.0602 9.31422 46.117C27.9996 61.7983 33.5325 64.2462 57.2149 64.2027L108.318 64.2031C114.824 64.3848 120.525 65.494 125.42 67.5306C130.796 69.7667 135.051 73.419 138.187 78.4875C141.322 83.407 142.89 89.5935 142.89 97.0472C142.89 108.079 139.605 116.352 133.035 121.868C126.466 127.235 117.582 129.918 106.383 129.918C95.0353 129.918 86.0765 127.309 79.5067 122.092C73.0863 116.725 69.8761 108.451 69.8761 97.2709C69.8761 91.1077 70.826 85.8268 72.726 81.4282C73.8566 78.8108 72.1148 75.333 69.2598 75.333H41.8769C40.4024 75.333 39.0894 76.2854 38.7032 77.7061C37.0882 83.6469 36.2807 90.094 36.2807 97.0472C36.2807 107.632 38.1471 117.098 41.8799 125.446C45.6127 133.645 50.6894 140.353 57.1098 145.571C63.5303 150.639 70.9212 154.515 79.2828 157.199C87.6443 159.733 96.6777 161 106.383 161C116.088 161 125.122 159.733 133.483 157.199C141.845 154.515 149.236 150.639 155.656 145.571C162.077 140.502 167.153 133.869 170.886 125.669C174.619 117.321 176.485 107.781 176.485 97.0472C176.485 86.463 174.619 77.0713 170.886 68.8723C167.153 60.5241 162.077 53.8158 155.656 48.7473C149.236 43.6788 141.845 39.8028 133.483 37.1194ZM267.823 155.941C267.823 158.735 265.554 161 262.756 161H239.071C236.272 161 234.004 158.735 234.004 155.941V5.05907C234.004 2.26502 236.272 0 239.071 0H262.756C265.554 0 267.823 2.26502 267.823 5.05907V155.941ZM309.781 161C312.579 161 314.848 158.735 314.848 155.941V46.7734C314.848 43.9794 312.579 41.7144 309.781 41.7144H286.096C283.297 41.7144 281.028 43.9794 281.028 46.7734V155.941C281.028 158.735 283.297 161 286.096 161H309.781ZM458.034 106.215H363.748C360.669 106.215 358.261 108.954 359.125 111.904C360.793 117.6 363.676 122.04 367.774 125.222C373.299 129.247 381.511 131.26 392.411 131.26C408.957 131.26 419.556 127.685 424.206 120.536C425.36 118.762 427.189 117.396 429.307 117.396H453.159C456.218 117.396 458.603 120.093 457.882 123.06C455.198 134.1 449.052 142.945 439.445 149.596C428.246 157.199 412.568 161 392.411 161C377.928 161 365.684 158.615 355.68 153.844C345.676 149.074 337.987 141.993 332.611 132.601C327.385 123.061 324.772 111.433 324.772 97.7181C324.772 87.432 326.265 78.3385 329.252 70.4375C332.387 62.5366 336.792 55.9028 342.466 50.5362C348.289 45.1695 355.381 41.1444 363.743 38.4611C372.254 35.6287 381.81 34.2125 392.411 34.2125C409.433 34.2125 423.617 38.163 434.965 46.0639C440.639 49.9399 445.342 54.5612 449.075 59.9278C452.957 65.2945 455.57 70.5866 456.914 75.8042C458.258 81.0218 459.154 86.3885 459.602 91.9042C460.137 96.7115 460.133 101.04 459.589 104.891C459.481 105.66 458.812 106.215 458.034 106.215ZM392.411 63.9528C377.49 63.9528 367.356 68.4268 362.008 77.3746C360.262 80.2962 362.711 83.6306 366.119 83.6306H418.528C421.987 83.6306 424.474 80.2005 422.733 77.2164C422.631 77.041 422.528 76.8684 422.423 76.6986C421.228 74.6116 419.437 72.5246 417.048 70.4375C414.659 68.3505 411.374 66.7852 407.193 65.7417C403.012 64.5491 398.085 63.9528 392.411 63.9528ZM309.781 28.7896C312.579 28.7896 314.848 26.5246 314.848 23.7305V5.18061C314.848 2.38656 312.579 0.121536 309.781 0.121536H286.096C283.297 0.121536 281.028 2.38656 281.028 5.18061V23.7305C281.028 26.5246 283.297 28.7896 286.096 28.7896H309.781Z" fill="url(#paint0_linear_1809_770)"></path>
  <path fill-rule="evenodd" clip-rule="evenodd" d="M215.731 161C218.529 161 220.798 158.735 220.798 155.941V5.05907C220.798 2.26502 218.529 0 215.731 0H192.046C189.247 0 186.979 2.26502 186.979 5.05907V155.941C186.979 158.735 189.247 161 192.046 161H215.731ZM133.483 37.1194C125.122 34.4361 116.072 33.1741 106.367 33.1741C105.475 33.1741 104.59 33.1844 103.712 33.205H63.0107C62.0665 33.1948 61.0704 33.201 60.0309 33.2076C49.9783 33.2706 35.8697 33.359 25.4606 18.8402C15.1708 7.24616 -7.52832 18.6424 2.5 37.3283C3.99462 40.1133 6.21622 43.0602 9.31422 46.117C27.9996 61.7983 33.5325 64.2462 57.2149 64.2027L108.318 64.2031C114.824 64.3848 120.525 65.494 125.42 67.5306C130.796 69.7667 135.051 73.419 138.187 78.4875C141.322 83.407 142.89 89.5935 142.89 97.0472C142.89 108.079 139.605 116.352 133.035 121.868C126.466 127.235 117.582 129.918 106.383 129.918C95.0353 129.918 86.0765 127.309 79.5067 122.092C73.0863 116.725 69.8761 108.451 69.8761 97.2709C69.8761 91.1077 70.826 85.8268 72.726 81.4282C73.8566 78.8108 72.1148 75.333 69.2598 75.333H41.8769C40.4024 75.333 39.0894 76.2854 38.7032 77.7061C37.0882 83.6469 36.2807 90.094 36.2807 97.0472C36.2807 107.632 38.1471 117.098 41.8799 125.446C45.6127 133.645 50.6894 140.353 57.1098 145.571C63.5303 150.639 70.9212 154.515 79.2828 157.199C87.6443 159.733 96.6777 161 106.383 161C116.088 161 125.122 159.733 133.483 157.199C141.845 154.515 149.236 150.639 155.656 145.571C162.077 140.502 167.153 133.869 170.886 125.669C174.619 117.321 176.485 107.781 176.485 97.0472C176.485 86.463 174.619 77.0713 170.886 68.8723C167.153 60.5241 162.077 53.8158 155.656 48.7473C149.236 43.6788 141.845 39.8028 133.483 37.1194ZM267.823 155.941C267.823 158.735 265.554 161 262.756 161H239.071C236.272 161 234.004 158.735 234.004 155.941V5.05907C234.004 2.26502 236.272 0 239.071 0H262.756C265.554 0 267.823 2.26502 267.823 5.05907V155.941ZM309.781 161C312.579 161 314.848 158.735 314.848 155.941V46.7734C314.848 43.9794 312.579 41.7144 309.781 41.7144H286.096C283.297 41.7144 281.028 43.9794 281.028 46.7734V155.941C281.028 158.735 283.297 161 286.096 161H309.781ZM458.034 106.215H363.748C360.669 106.215 358.261 108.954 359.125 111.904C360.793 117.6 363.676 122.04 367.774 125.222C373.299 129.247 381.511 131.26 392.411 131.26C408.957 131.26 419.556 127.685 424.206 120.536C425.36 118.762 427.189 117.396 429.307 117.396H453.159C456.218 117.396 458.603 120.093 457.882 123.06C455.198 134.1 449.052 142.945 439.445 149.596C428.246 157.199 412.568 161 392.411 161C377.928 161 365.684 158.615 355.68 153.844C345.676 149.074 337.987 141.993 332.611 132.601C327.385 123.061 324.772 111.433 324.772 97.7181C324.772 87.432 326.265 78.3385 329.252 70.4375C332.387 62.5366 336.792 55.9028 342.466 50.5362C348.289 45.1695 355.381 41.1444 363.743 38.4611C372.254 35.6287 381.81 34.2125 392.411 34.2125C409.433 34.2125 423.617 38.163 434.965 46.0639C440.639 49.9399 445.342 54.5612 449.075 59.9278C452.957 65.2945 455.57 70.5866 456.914 75.8042C458.258 81.0218 459.154 86.3885 459.602 91.9042C460.137 96.7115 460.133 101.04 459.589 104.891C459.481 105.66 458.812 106.215 458.034 106.215ZM392.411 63.9528C377.49 63.9528 367.356 68.4268 362.008 77.3746C360.262 80.2962 362.711 83.6306 366.119 83.6306H418.528C421.987 83.6306 424.474 80.2005 422.733 77.2164C422.631 77.041 422.528 76.8684 422.423 76.6986C421.228 74.6116 419.437 72.5246 417.048 70.4375C414.659 68.3505 411.374 66.7852 407.193 65.7417C403.012 64.5491 398.085 63.9528 392.411 63.9528ZM309.781 28.7896C312.579 28.7896 314.848 26.5246 314.848 23.7305V5.18061C314.848 2.38656 312.579 0.121536 309.781 0.121536H286.096C283.297 0.121536 281.028 2.38656 281.028 5.18061V23.7305C281.028 26.5246 283.297 28.7896 286.096 28.7896H309.781Z" fill="white"></path>
  <defs>
    <linearGradient id="paint0_linear_1809_770" x1="140.823" y1="5.83408e-06" x2="350.186" y2="161.202" gradientUnits="userSpaceOnUse">
      <stop stop-color="#6741FF"></stop>
      <stop offset="1" stop-color="#9541FF"></stop>
    </linearGradient>
  </defs>
</svg>
