<svg width="635" height="31" viewBox="0 0 635 31" fill="none" xmlns="http://www.w3.org/2000/svg">
<path d="M0 5.8801C0 2.63261 2.63261 0 5.8801 0H630.12C633.367 0 636 2.63261 636 5.8801V31H0V5.8801Z" fill="white"/>
<g clip-path="url(#clip0_2271_6011)">
<path d="M571.025 16.6198C571.235 16.6198 571.41 16.4441 571.41 16.2391V11.2264L571.381 10.4942L571.713 10.8408L572.45 11.6315C572.518 11.7096 572.621 11.7486 572.714 11.7486C572.919 11.7486 573.07 11.6022 573.07 11.4021C573.07 11.2996 573.031 11.2215 572.958 11.1483L571.308 9.55708C571.21 9.45946 571.122 9.42529 571.025 9.42529C570.927 9.42529 570.839 9.45946 570.742 9.55708L569.092 11.1483C569.019 11.2215 568.975 11.2996 568.975 11.4021C568.975 11.6022 569.126 11.7486 569.326 11.7486C569.424 11.7486 569.526 11.7096 569.595 11.6315L570.336 10.8408L570.668 10.4942L570.634 11.2264V16.2391C570.634 16.4441 570.815 16.6198 571.025 16.6198ZM568.223 20.4416H573.821C574.842 20.4416 575.354 19.934 575.354 18.9285V14.0573C575.354 13.0518 574.842 12.5442 573.821 12.5442H572.46V13.33H573.807C574.29 13.33 574.568 13.5936 574.568 14.1012V18.8846C574.568 19.3922 574.29 19.6558 573.807 19.6558H568.233C567.745 19.6558 567.476 19.3922 567.476 18.8846V14.1012C567.476 13.5936 567.745 13.33 568.233 13.33H569.585V12.5442H568.223C567.203 12.5442 566.69 13.0518 566.69 14.0573V18.9285C566.69 19.934 567.203 20.4416 568.223 20.4416Z" fill="#737373"/>
<path d="M595.133 19.407C595.372 19.407 595.573 19.2167 595.573 18.9824V15.7365H598.726C598.96 15.7365 599.16 15.5364 599.16 15.2973C599.16 15.0581 598.96 14.8629 598.726 14.8629H595.573V11.6121C595.573 11.3779 595.372 11.1875 595.133 11.1875C594.894 11.1875 594.699 11.3779 594.699 11.6121V14.8629H591.541C591.307 14.8629 591.106 15.0581 591.106 15.2973C591.106 15.5364 591.307 15.7365 591.541 15.7365H594.699V18.9824C594.699 19.2167 594.894 19.407 595.133 19.407Z" fill="#737373"/>
<path d="M615.61 18.1527H616.444V18.8995C616.444 19.905 616.952 20.4126 617.977 20.4126H622.877C623.893 20.4126 624.405 19.905 624.405 18.8995V13.96C624.405 12.9545 623.893 12.4469 622.877 12.4469H622.038V11.7001C622.038 10.6946 621.525 10.187 620.51 10.187H615.61C614.585 10.187 614.077 10.6946 614.077 11.7001V16.6396C614.077 17.6451 614.585 18.1527 615.61 18.1527ZM615.62 17.3669C615.131 17.3669 614.863 17.1033 614.863 16.5957V11.744C614.863 11.2364 615.131 10.9728 615.62 10.9728H620.496C620.979 10.9728 621.252 11.2364 621.252 11.744V12.4469H617.977C616.952 12.4469 616.444 12.9496 616.444 13.96V17.3669H615.62ZM617.987 19.6268C617.504 19.6268 617.23 19.3632 617.23 18.8556V14.0039C617.23 13.4963 617.504 13.2327 617.987 13.2327H622.863C623.346 13.2327 623.619 13.4963 623.619 14.0039V18.8556C623.619 19.3632 623.346 19.6268 622.863 19.6268H617.987Z" fill="#737373"/>
</g>
<g clip-path="url(#clip1_2271_6011)">
<path d="M90.1215 19.3972L86.2509 15.6193C86.1582 15.5266 86.1094 15.4143 86.1094 15.2923C86.1094 15.1654 86.1631 15.0434 86.2558 14.9653L90.1215 11.1826C90.2045 11.0996 90.3119 11.0508 90.4388 11.0508C90.6926 11.0508 90.8829 11.246 90.8829 11.4998C90.8829 11.617 90.8341 11.7341 90.756 11.8171L87.2027 15.2923L90.756 18.7676C90.8341 18.8505 90.8829 18.9628 90.8829 19.0848C90.8829 19.3386 90.6926 19.529 90.4388 19.529C90.3119 19.529 90.2045 19.4802 90.1215 19.3972Z" fill="#737373"/>
<path d="M105.958 19.5339C106.085 19.5339 106.192 19.4851 106.275 19.4021L110.146 15.6193C110.238 15.5266 110.287 15.4143 110.287 15.2923C110.287 15.1654 110.238 15.0483 110.146 14.9653L106.28 11.1874C106.192 11.0996 106.085 11.0508 105.958 11.0508C105.704 11.0508 105.514 11.246 105.514 11.4998C105.514 11.617 105.562 11.7341 105.641 11.8171L109.194 15.2923L105.641 18.7676C105.562 18.8505 105.514 18.9628 105.514 19.0848C105.514 19.3386 105.704 19.5339 105.958 19.5339Z" fill="#BFBFBF"/>
</g>
<path d="M59.5766 19.7925H68.0206C69.0456 19.7925 69.5532 19.2848 69.5532 18.2794V12.3197C69.5532 11.3143 69.0456 10.8066 68.0206 10.8066H59.5766C58.5564 10.8066 58.0439 11.3094 58.0439 12.3197V18.2794C58.0439 19.2897 58.5564 19.7925 59.5766 19.7925ZM59.5863 19.0066C59.0982 19.0066 58.8298 18.7479 58.8298 18.2403V12.3588C58.8298 11.8512 59.0982 11.5925 59.5863 11.5925H61.7632V19.0066H59.5863ZM68.0108 11.5925C68.494 11.5925 68.7674 11.8512 68.7674 12.3588V18.2403C68.7674 18.7479 68.494 19.0066 68.0108 19.0066H62.5295V11.5925H68.0108ZM60.8212 13.4033C60.9725 13.4033 61.0994 13.2715 61.0994 13.13C61.0994 12.9835 60.9725 12.8566 60.8212 12.8566H59.7767C59.6303 12.8566 59.4985 12.9835 59.4985 13.13C59.4985 13.2715 59.6303 13.4033 59.7767 13.4033H60.8212ZM60.8212 14.6675C60.9725 14.6675 61.0994 14.5357 61.0994 14.3893C61.0994 14.2428 60.9725 14.1208 60.8212 14.1208H59.7767C59.6303 14.1208 59.4985 14.2428 59.4985 14.3893C59.4985 14.5357 59.6303 14.6675 59.7767 14.6675H60.8212ZM60.8212 15.9268C60.9725 15.9268 61.0994 15.8047 61.0994 15.6583C61.0994 15.5119 60.9725 15.385 60.8212 15.385H59.7767C59.6303 15.385 59.4985 15.5119 59.4985 15.6583C59.4985 15.8047 59.6303 15.9268 59.7767 15.9268H60.8212Z" fill="#737373"/>
<g filter="url(#filter0_i_2271_6011)">
<path fill-rule="evenodd" clip-rule="evenodd" d="M15.8767 18.8164C17.8252 18.8164 19.4048 17.2368 19.4048 15.2883C19.4048 13.3398 17.8252 11.7603 15.8767 11.7603C13.9282 11.7603 12.3486 13.3398 12.3486 15.2883C12.3486 17.2368 13.9282 18.8164 15.8767 18.8164Z" fill="#EE6A5F"/>
</g>
<path d="M19.2578 15.2883C19.2578 17.1556 17.744 18.6694 15.8767 18.6694C14.0094 18.6694 12.4956 17.1556 12.4956 15.2883C12.4956 13.421 14.0094 11.9073 15.8767 11.9073C17.744 11.9073 19.2578 13.421 19.2578 15.2883Z" stroke="#CE5347" stroke-width="0.294005"/>
<g filter="url(#filter1_i_2271_6011)">
<path fill-rule="evenodd" clip-rule="evenodd" d="M27.6365 18.8164C29.585 18.8164 31.1645 17.2368 31.1645 15.2883C31.1645 13.3398 29.585 11.7603 27.6365 11.7603C25.688 11.7603 24.1084 13.3398 24.1084 15.2883C24.1084 17.2368 25.688 18.8164 27.6365 18.8164Z" fill="#F5BD4F"/>
</g>
<path d="M31.0175 15.2883C31.0175 17.1556 29.5038 18.6694 27.6365 18.6694C25.7692 18.6694 24.2554 17.1556 24.2554 15.2883C24.2554 13.421 25.7692 11.9073 27.6365 11.9073C29.5038 11.9073 31.0175 13.421 31.0175 15.2883Z" stroke="#D6A243" stroke-width="0.294005"/>
<g filter="url(#filter2_i_2271_6011)">
<path fill-rule="evenodd" clip-rule="evenodd" d="M39.3962 18.8164C41.3447 18.8164 42.9243 17.2368 42.9243 15.2883C42.9243 13.3398 41.3447 11.7603 39.3962 11.7603C37.4477 11.7603 35.8682 13.3398 35.8682 15.2883C35.8682 17.2368 37.4477 18.8164 39.3962 18.8164Z" fill="#61C454"/>
</g>
<path d="M42.7773 15.2883C42.7773 17.1556 41.2635 18.6694 39.3962 18.6694C37.5289 18.6694 36.0152 17.1556 36.0152 15.2883C36.0152 13.421 37.5289 11.9073 39.3962 11.9073C41.2635 11.9073 42.7773 13.421 42.7773 15.2883Z" stroke="#58A942" stroke-width="0.294005"/>
<g clip-path="url(#clip2_2271_6011)">
<path d="M178.64 20.3536C178.718 20.3536 178.845 20.3244 178.967 20.256C181.744 18.699 182.696 18.0401 182.696 16.2585V12.5246C182.696 12.0121 182.476 11.851 182.062 11.6753C181.486 11.4362 179.626 10.7675 179.05 10.5674C178.918 10.5234 178.777 10.4941 178.64 10.4941C178.503 10.4941 178.362 10.5332 178.235 10.5674C177.659 10.7333 175.794 11.441 175.219 11.6753C174.809 11.8462 174.584 12.0121 174.584 12.5246V16.2585C174.584 18.0401 175.541 18.6941 178.313 20.256C178.44 20.3244 178.562 20.3536 178.64 20.3536ZM178.835 11.3239C179.572 11.6168 181.002 12.1341 181.759 12.3928C181.891 12.4416 181.92 12.51 181.92 12.6759V16.0779C181.92 17.5862 181.198 17.9815 178.943 19.3531C178.801 19.4409 178.723 19.4653 178.645 19.4702V11.28C178.694 11.28 178.757 11.2946 178.835 11.3239Z" fill="#737373"/>
<rect x="193.634" y="7.05615" width="248.728" height="16.4643" rx="3.52806" fill="black" fill-opacity="0.05"/>
<g clip-path="url(#clip3_2271_6011)">
<path d="M290.888 18.6492H294.168C294.613 18.6492 294.83 18.4287 294.83 17.9463V15.4174C294.83 14.9833 294.65 14.7593 294.282 14.7214V13.8532C294.282 12.5543 293.431 11.9272 292.528 11.9272C291.625 11.9272 290.774 12.5543 290.774 13.8532V14.7387C290.437 14.7904 290.227 15.0109 290.227 15.4174V17.9463C290.227 18.4287 290.444 18.6492 290.888 18.6492ZM291.329 13.7809C291.329 12.9161 291.884 12.4578 292.528 12.4578C293.172 12.4578 293.727 12.9161 293.727 13.7809V14.718L291.329 14.7214V13.7809Z" fill="#9E9E9E"/>
<path d="M299.335 19.2139C299.235 19.2139 299.115 19.2064 299.011 19.1952V18.557C299.089 18.5682 299.19 18.5719 299.283 18.5719C299.66 18.5719 299.888 18.4114 300.007 18.0008L300.067 17.7918L298.596 13.7346H299.47L300.485 16.9744H300.556L301.567 13.7346H302.418L300.91 17.9449C300.567 18.9116 300.156 19.2139 299.335 19.2139ZM304.769 17.8665C303.578 17.8665 302.851 17.0714 302.851 15.7651V15.7576C302.851 14.455 303.582 13.6562 304.769 13.6562C305.952 13.6562 306.684 14.4512 306.684 15.7576V15.7651C306.684 17.0714 305.956 17.8665 304.769 17.8665ZM304.769 17.1909C305.463 17.1909 305.859 16.6609 305.859 15.7651V15.7576C305.859 14.8581 305.463 14.3318 304.769 14.3318C304.071 14.3318 303.679 14.8581 303.679 15.7576V15.7651C303.679 16.6646 304.071 17.1909 304.769 17.1909ZM308.971 17.8665C308.057 17.8665 307.583 17.3178 307.583 16.3585V13.7346H308.393V16.1682C308.393 16.84 308.639 17.1722 309.232 17.1722C309.882 17.1722 310.229 16.7654 310.229 16.1122V13.7346H311.035V17.7881H310.229V17.176H310.166C309.971 17.6127 309.561 17.8665 308.971 17.8665ZM312.173 17.7881V13.7346H312.983V14.3467H313.043C313.188 13.9175 313.565 13.6637 314.106 13.6637C314.237 13.6637 314.379 13.6824 314.461 13.701V14.4475C314.315 14.4177 314.177 14.399 314.024 14.399C313.405 14.399 312.983 14.7797 312.983 15.3657V17.7881H312.173ZM316.595 17.8665C315.617 17.8665 314.998 17.4074 314.919 16.7281V16.7243H315.729L315.733 16.7281C315.834 17.0341 316.129 17.2394 316.61 17.2394C317.11 17.2394 317.457 17.0117 317.457 16.6795V16.6721C317.457 16.4183 317.267 16.2466 316.797 16.1383L316.151 15.989C315.386 15.8136 315.031 15.4665 315.031 14.873V14.8693C315.031 14.1638 315.688 13.6562 316.606 13.6562C317.532 13.6562 318.126 14.1191 318.196 14.7797V14.7834H317.424V14.776C317.345 14.4923 317.058 14.2795 316.603 14.2795C316.159 14.2795 315.838 14.4998 315.838 14.8245V14.832C315.838 15.0858 316.024 15.2425 316.48 15.3508L317.121 15.4963C317.902 15.6792 318.275 16.0114 318.275 16.5974V16.6049C318.275 17.3551 317.558 17.8665 316.595 17.8665ZM319.633 13.0105C319.353 13.0105 319.125 12.7828 319.125 12.5066C319.125 12.2267 319.353 11.999 319.633 11.999C319.909 11.999 320.14 12.2267 320.14 12.5066C320.14 12.7828 319.909 13.0105 319.633 13.0105ZM319.226 17.7881V13.7346H320.032V17.7881H319.226ZM322.711 17.8142C321.819 17.8142 321.453 17.5007 321.453 16.7206V14.3729H320.819V13.7346H321.453V12.7119H322.278V13.7346H323.148V14.3729H322.278V16.5265C322.278 16.9632 322.443 17.1424 322.842 17.1424C322.965 17.1424 323.036 17.1386 323.148 17.1274V17.7732C323.017 17.7956 322.868 17.8142 322.711 17.8142ZM325.719 17.8665C324.532 17.8665 323.815 17.0565 323.815 15.7725V15.7688C323.815 14.5035 324.547 13.6562 325.678 13.6562C326.809 13.6562 327.503 14.4736 327.503 15.6904V15.9741H324.629C324.644 16.7505 325.07 17.2021 325.738 17.2021C326.256 17.2021 326.566 16.9445 326.663 16.7355L326.678 16.7057L327.458 16.7019L327.451 16.7355C327.317 17.2693 326.757 17.8665 325.719 17.8665ZM325.682 14.3206C325.129 14.3206 324.711 14.6976 324.64 15.3956H326.701C326.637 14.6715 326.23 14.3206 325.682 14.3206ZM329.059 17.8441C328.749 17.8441 328.51 17.6052 328.51 17.3029C328.51 16.9968 328.749 16.7579 329.059 16.7579C329.369 16.7579 329.604 16.9968 329.604 17.3029C329.604 17.6052 329.369 17.8441 329.059 17.8441ZM332.373 17.8665C331.189 17.8665 330.465 17.0603 330.465 15.7501V15.7427C330.465 14.4587 331.186 13.6562 332.369 13.6562C333.388 13.6562 333.996 14.231 334.108 15.0186V15.0372L333.332 15.041L333.328 15.0298C333.239 14.6304 332.91 14.3318 332.373 14.3318C331.697 14.3318 331.29 14.8693 331.29 15.7427V15.7501C331.29 16.6459 331.704 17.1909 332.373 17.1909C332.88 17.1909 333.194 16.9595 333.324 16.5228L333.332 16.5041H334.108L334.101 16.5377C333.955 17.3253 333.377 17.8665 332.373 17.8665ZM336.713 17.8665C335.522 17.8665 334.794 17.0714 334.794 15.7651V15.7576C334.794 14.455 335.526 13.6562 336.713 13.6562C337.896 13.6562 338.628 14.4512 338.628 15.7576V15.7651C338.628 17.0714 337.9 17.8665 336.713 17.8665ZM336.713 17.1909C337.407 17.1909 337.803 16.6609 337.803 15.7651V15.7576C337.803 14.8581 337.407 14.3318 336.713 14.3318C336.015 14.3318 335.623 14.8581 335.623 15.7576V15.7651C335.623 16.6646 336.015 17.1909 336.713 17.1909ZM339.564 17.7881V13.7346H340.374V14.3579H340.433C340.612 13.9138 341.008 13.6562 341.538 13.6562C342.091 13.6562 342.482 13.9436 342.662 14.3803H342.725C342.93 13.9436 343.397 13.6562 343.961 13.6562C344.778 13.6562 345.256 14.1489 345.256 14.9925V17.7881H344.449V15.1865C344.449 14.6267 344.196 14.3505 343.666 14.3505C343.151 14.3505 342.811 14.7349 342.811 15.2239V17.7881H342.005V15.1044C342.005 14.6416 341.702 14.3505 341.225 14.3505C340.736 14.3505 340.374 14.7685 340.374 15.2985V17.7881H339.564Z" fill="#4C4C4C"/>
</g>
<path d="M435.473 15.062C435.559 15.062 435.625 15.0345 435.673 14.9828L437.092 13.5564C437.154 13.4978 437.178 13.4289 437.178 13.3497C437.178 13.2739 437.147 13.1981 437.092 13.143L435.673 11.7028C435.625 11.6477 435.556 11.6201 435.473 11.6201C435.318 11.6201 435.201 11.7442 435.201 11.9026C435.201 11.975 435.228 12.0439 435.277 12.099L436.196 13.0017C436 12.9673 435.8 12.9466 435.6 12.9466C433.912 12.9466 432.555 14.3006 432.555 15.9888C432.555 17.6805 433.912 19.038 435.6 19.038C437.289 19.038 438.643 17.6805 438.643 15.9888C438.643 15.8235 438.526 15.7029 438.357 15.7029C438.195 15.7029 438.088 15.8235 438.088 15.9888C438.088 17.3739 436.982 18.4833 435.6 18.4833C434.219 18.4833 433.109 17.3739 433.109 15.9888C433.109 14.6073 434.219 13.5013 435.6 13.5013C435.862 13.5013 436.103 13.522 436.31 13.5668L435.28 14.59C435.228 14.6452 435.201 14.7141 435.201 14.7864C435.201 14.9449 435.318 15.062 435.473 15.062Z" fill="#797979"/>
</g>
<defs>
<filter id="filter0_i_2271_6011" x="12.3486" y="11.7603" width="7.05566" height="7.05615" filterUnits="userSpaceOnUse" color-interpolation-filters="sRGB">
<feFlood flood-opacity="0" result="BackgroundImageFix"/>
<feBlend mode="normal" in="SourceGraphic" in2="BackgroundImageFix" result="shape"/>
<feColorMatrix in="SourceAlpha" type="matrix" values="0 0 0 0 0 0 0 0 0 0 0 0 0 0 0 0 0 0 127 0" result="hardAlpha"/>
<feOffset/>
<feGaussianBlur stdDeviation="1.76403"/>
<feComposite in2="hardAlpha" operator="arithmetic" k2="-1" k3="1"/>
<feColorMatrix type="matrix" values="0 0 0 0 0.92549 0 0 0 0 0.427451 0 0 0 0 0.384314 0 0 0 1 0"/>
<feBlend mode="normal" in2="shape" result="effect1_innerShadow_2271_6011"/>
</filter>
<filter id="filter1_i_2271_6011" x="24.1084" y="11.7603" width="7.05566" height="7.05615" filterUnits="userSpaceOnUse" color-interpolation-filters="sRGB">
<feFlood flood-opacity="0" result="BackgroundImageFix"/>
<feBlend mode="normal" in="SourceGraphic" in2="BackgroundImageFix" result="shape"/>
<feColorMatrix in="SourceAlpha" type="matrix" values="0 0 0 0 0 0 0 0 0 0 0 0 0 0 0 0 0 0 127 0" result="hardAlpha"/>
<feOffset/>
<feGaussianBlur stdDeviation="1.76403"/>
<feComposite in2="hardAlpha" operator="arithmetic" k2="-1" k3="1"/>
<feColorMatrix type="matrix" values="0 0 0 0 0.960784 0 0 0 0 0.768627 0 0 0 0 0.317647 0 0 0 1 0"/>
<feBlend mode="normal" in2="shape" result="effect1_innerShadow_2271_6011"/>
</filter>
<filter id="filter2_i_2271_6011" x="35.8682" y="11.7603" width="7.05566" height="7.05615" filterUnits="userSpaceOnUse" color-interpolation-filters="sRGB">
<feFlood flood-opacity="0" result="BackgroundImageFix"/>
<feBlend mode="normal" in="SourceGraphic" in2="BackgroundImageFix" result="shape"/>
<feColorMatrix in="SourceAlpha" type="matrix" values="0 0 0 0 0 0 0 0 0 0 0 0 0 0 0 0 0 0 127 0" result="hardAlpha"/>
<feOffset/>
<feGaussianBlur stdDeviation="1.76403"/>
<feComposite in2="hardAlpha" operator="arithmetic" k2="-1" k3="1"/>
<feColorMatrix type="matrix" values="0 0 0 0 0.407843 0 0 0 0 0.8 0 0 0 0 0.345098 0 0 0 1 0"/>
<feBlend mode="normal" in2="shape" result="effect1_innerShadow_2271_6011"/>
</filter>
<clipPath id="clip0_2271_6011">
<rect width="67.6212" height="16.4643" fill="white" transform="translate(561.322 7.05615)"/>
</clipPath>
<clipPath id="clip1_2271_6011">
<rect width="38.8087" height="16.4643" fill="white" transform="translate(78.793 7.05615)"/>
</clipPath>
<clipPath id="clip2_2271_6011">
<rect width="298.125" height="16.4643" fill="white" transform="translate(168.938 7.05615)"/>
</clipPath>
<clipPath id="clip3_2271_6011">
<rect x="290.227" y="10.7881" width="56.1311" height="9" fill="white"/>
</clipPath>
</defs>
</svg>
