<svg width="917" height="277" viewBox="0 0 917 277" fill="none" xmlns="http://www.w3.org/2000/svg">
<path d="M905 1H12C5.92487 1 1 5.92487 1 12V265C1 271.075 5.92485 276 12 276H905C911.075 276 916 271.075 916 265V12C916 5.92487 911.075 1 905 1Z" fill="#EEEEF7"/>
<path d="M226.674 48.2C226.674 41.4794 226.674 38.1191 227.982 35.5521C229.132 33.2942 230.968 31.4584 233.226 30.3079C235.793 29 239.153 29 245.874 29H606.822C613.542 29 616.903 29 619.47 30.3079C621.727 31.4584 623.563 33.2942 624.714 35.5521C626.022 38.1191 626.022 41.4794 626.022 48.2V130.609H226.674V48.2Z" fill="white"/>
<path d="M347.434 92.3042V81.9908L338.569 67.1228H342.914L349.249 78.0993H349.546L355.88 67.1228H360.226L351.343 81.9908V92.3042H347.434ZM369.073 92.6707C363.506 92.6707 360.103 88.9537 360.103 82.8459V82.811C360.103 76.7207 363.524 72.9862 369.073 72.9862C374.605 72.9862 378.025 76.7032 378.025 82.811V82.8459C378.025 88.9537 374.622 92.6707 369.073 92.6707ZM369.073 89.5121C372.319 89.5121 374.169 87.0341 374.169 82.8459V82.811C374.169 78.6054 372.319 76.1448 369.073 76.1448C365.81 76.1448 363.977 78.6054 363.977 82.811V82.8459C363.977 87.0515 365.81 89.5121 369.073 89.5121ZM388.862 92.6707C384.587 92.6707 382.371 90.1054 382.371 85.6206V73.3527H386.157V84.7306C386.157 87.8717 387.309 89.4248 390.084 89.4248C393.12 89.4248 394.743 87.5227 394.743 84.4688V73.3527H398.513V92.3042H394.743V89.4423H394.447C393.539 91.484 391.619 92.6707 388.862 92.6707ZM403.975 92.3042V73.3527H407.761V76.2146H408.041C408.721 74.2078 410.484 73.0211 413.014 73.0211C413.625 73.0211 414.288 73.1084 414.672 73.1956V76.6858C413.991 76.5462 413.346 76.4589 412.63 76.4589C409.733 76.4589 407.761 78.2389 407.761 80.9787V92.3042H403.975ZM438.824 92.915C431.826 92.915 427.463 87.8543 427.463 79.7397V79.7048C427.463 71.5727 431.809 66.512 438.806 66.512C444.356 66.512 448.614 70.0196 449.277 75.028L449.259 75.1152H445.385V75.0629C444.652 71.9741 442.122 69.9672 438.806 69.9672C434.287 69.9672 431.46 73.7192 431.46 79.7048V79.7397C431.46 85.7078 434.287 89.4597 438.824 89.4597C442.157 89.4597 444.652 87.6798 445.368 84.8353L445.403 84.7655H449.277V84.8702C448.544 89.704 444.443 92.915 438.824 92.915ZM462.016 92.6707C456.449 92.6707 453.046 88.9537 453.046 82.8459V82.811C453.046 76.7207 456.466 72.9862 462.016 72.9862C467.548 72.9862 470.968 76.7032 470.968 82.811V82.8459C470.968 88.9537 467.565 92.6707 462.016 92.6707ZM462.016 89.5121C465.262 89.5121 467.111 87.0341 467.111 82.8459V82.811C467.111 78.6054 465.262 76.1448 462.016 76.1448C458.753 76.1448 456.92 78.6054 456.92 82.811V82.8459C456.92 87.0515 458.753 89.5121 462.016 89.5121ZM483.515 92.6707C477.948 92.6707 474.545 88.9537 474.545 82.8459V82.811C474.545 76.7207 477.966 72.9862 483.515 72.9862C489.047 72.9862 492.467 76.7032 492.467 82.811V82.8459C492.467 88.9537 489.064 92.6707 483.515 92.6707ZM483.515 89.5121C486.761 89.5121 488.611 87.0341 488.611 82.8459V82.811C488.611 78.6054 486.761 76.1448 483.515 76.1448C480.252 76.1448 478.419 78.6054 478.419 82.811V82.8459C478.419 87.0515 480.252 89.5121 483.515 89.5121ZM497.162 92.3042V65.9187H500.948V92.3042H497.162ZM525.31 92.915C519.621 92.915 515.974 90.0356 515.625 85.7951L515.607 85.5682H519.446L519.464 85.7602C519.673 88.0462 522.099 89.5121 525.467 89.5121C528.678 89.5121 530.964 87.9066 530.964 85.5682V85.5508C530.964 83.6137 529.603 82.3573 526.269 81.6418L523.512 81.0485C518.399 79.9665 516.2 77.5932 516.2 73.8762V73.8588C516.218 69.5135 519.987 66.512 525.327 66.512C530.667 66.512 534.157 69.531 534.436 73.4399L534.454 73.6843H530.667L530.632 73.4574C530.301 71.3982 528.329 69.8974 525.275 69.9149C522.326 69.9149 520.144 71.2935 520.144 73.6668V73.6843C520.144 75.5515 521.471 76.773 524.734 77.4711L527.474 78.0818C532.761 79.2161 534.925 81.3451 534.925 85.0796V85.097C534.925 89.9134 531.173 92.915 525.31 92.915ZM541.609 69.9672C540.3 69.9672 539.235 68.9027 539.235 67.6114C539.235 66.3026 540.3 65.2381 541.609 65.2381C542.9 65.2381 543.982 66.3026 543.982 67.6114C543.982 68.9027 542.9 69.9672 541.609 69.9672ZM539.707 92.3042V73.3527H543.476V92.3042H539.707ZM556.145 92.4264C551.974 92.4264 550.264 90.9605 550.264 87.3133V76.3368H547.298V73.3527H550.264V68.5712H554.121V73.3527H558.187V76.3368H554.121V86.4058C554.121 88.4476 554.889 89.2852 556.756 89.2852C557.332 89.2852 557.663 89.2678 558.187 89.2154V92.2344C557.576 92.3391 556.878 92.4264 556.145 92.4264ZM570.35 92.6707C564.801 92.6707 561.45 88.8839 561.45 82.8808V82.8633C561.45 76.9475 564.871 72.9862 570.158 72.9862C575.446 72.9862 578.691 76.8079 578.691 82.4969V83.8231H565.254C565.324 87.4529 567.314 89.5644 570.437 89.5644C572.863 89.5644 574.311 88.3603 574.765 87.3831L574.835 87.2435L578.482 87.226L578.447 87.3831C577.819 89.8785 575.201 92.6707 570.35 92.6707ZM570.176 76.0925C567.593 76.0925 565.638 77.855 565.307 81.1183H574.94C574.643 77.7328 572.741 76.0925 570.176 76.0925Z" fill="#636381"/>
<path d="M674.87 68.3125V78.3641H684.921C686.108 78.3641 687.155 79.4112 687.155 80.5978C687.155 81.8543 686.108 82.8315 684.921 82.8315H674.87V92.8832C674.87 94.1396 673.823 95.1168 672.636 95.1168C671.379 95.1168 670.402 94.1396 670.402 92.8832V82.8315H660.351C659.094 82.8315 658.117 81.8543 658.117 80.5978C658.117 79.4112 659.094 78.3641 660.351 78.3641H670.402V68.3125C670.402 67.1258 671.379 66.0788 672.636 66.0788C673.823 66.0788 674.87 67.1258 674.87 68.3125Z" fill="#636381"/>
<g filter="url(#filter0_i_2540_6587)">
<path fill-rule="evenodd" clip-rule="evenodd" d="M53.1199 81.2397C61.4703 81.2397 68.2397 74.4703 68.2397 66.1199C68.2397 57.7694 61.4703 51 53.1199 51C44.7694 51 38 57.7694 38 66.1199C38 74.4703 44.7694 81.2397 53.1199 81.2397Z" fill="#EE6A5F"/>
</g>
<path d="M67.6098 66.1199C67.6098 74.1224 61.1224 80.6098 53.1199 80.6098C45.1173 80.6098 38.63 74.1224 38.63 66.1199C38.63 58.1173 45.1173 51.63 53.1199 51.63C61.1224 51.63 67.6098 58.1173 67.6098 66.1199Z" stroke="#CE5347" stroke-width="1.25999"/>
<g filter="url(#filter1_i_2540_6587)">
<path fill-rule="evenodd" clip-rule="evenodd" d="M103.519 81.2397C111.87 81.2397 118.639 74.4703 118.639 66.1199C118.639 57.7694 111.87 51 103.519 51C95.1688 51 88.3994 57.7694 88.3994 66.1199C88.3994 74.4703 95.1688 81.2397 103.519 81.2397Z" fill="#F5BD4F"/>
</g>
<path d="M118.009 66.1199C118.009 74.1224 111.522 80.6098 103.519 80.6098C95.5167 80.6098 89.0294 74.1224 89.0294 66.1199C89.0294 58.1173 95.5167 51.63 103.519 51.63C111.522 51.63 118.009 58.1173 118.009 66.1199Z" stroke="#D6A243" stroke-width="1.25999"/>
<g filter="url(#filter2_i_2540_6587)">
<path fill-rule="evenodd" clip-rule="evenodd" d="M153.919 81.2397C162.269 81.2397 169.039 74.4703 169.039 66.1199C169.039 57.7694 162.269 51 153.919 51C145.568 51 138.799 57.7694 138.799 66.1199C138.799 74.4703 145.568 81.2397 153.919 81.2397Z" fill="#61C454"/>
</g>
<path d="M168.409 66.1199C168.409 74.1224 161.921 80.6098 153.919 80.6098C145.916 80.6098 139.429 74.1224 139.429 66.1199C139.429 58.1173 145.916 51.63 153.919 51.63C161.921 51.63 168.409 58.1173 168.409 66.1199Z" stroke="#58A942" stroke-width="1.25999"/>
<rect x="2" y="130" width="913" height="145" fill="white"/>
<path d="M53.0126 188.029L39.0209 201.385C38.6235 201.782 38.385 202.259 38.385 202.816C38.385 203.293 38.6235 203.77 39.0209 204.167L53.0126 217.523C53.728 218.238 55 218.238 55.7155 217.444C56.431 216.728 56.431 215.456 55.636 214.741L45.0628 204.724H72.0921C73.205 204.724 74 203.849 74 202.816C74 201.703 73.205 200.908 72.0921 200.908H45.0628L55.636 190.812C56.431 190.096 56.431 188.824 55.7155 188.109C55 187.314 53.8075 187.314 53.0126 188.029Z" fill="#636381"/>
<path d="M123.987 188.029L137.979 201.385C138.377 201.782 138.615 202.259 138.615 202.816C138.615 203.293 138.377 203.77 137.979 204.167L123.987 217.523C123.272 218.238 122 218.238 121.285 217.444C120.569 216.728 120.569 215.456 121.364 214.741L131.937 204.724H104.908C103.795 204.724 103 203.849 103 202.816C103 201.703 103.795 200.908 104.908 200.908H131.937L121.364 190.812C120.569 190.096 120.569 188.824 121.285 188.109C122 187.314 123.192 187.314 123.987 188.029Z" fill="#636381"/>
<path d="M207.431 188.109V198.285C207.431 199.398 206.556 200.192 205.523 200.192H195.347C194.234 200.192 193.439 199.398 193.439 198.364C193.439 197.808 193.598 197.331 193.996 197.013L198.13 192.799C195.506 190.335 192.088 188.745 188.351 188.745C180.561 188.745 174.36 195.025 174.36 202.736C174.36 210.527 180.561 216.728 188.351 216.728C194.791 216.728 196.858 213.071 198.448 213.071C199.243 213.071 200.356 213.707 200.356 214.979C200.356 216.967 194.393 220.544 188.272 220.544C178.414 220.544 170.464 212.594 170.464 202.816C170.464 192.958 178.414 185.008 188.272 185.008C193.042 185.008 197.494 186.996 200.753 190.176L204.013 186.916C204.331 186.598 204.808 186.36 205.364 186.36C206.556 186.28 207.431 187.075 207.431 188.109Z" fill="#636381"/>
<rect x="258" y="162" width="617" height="78" rx="39" fill="#F6F6FC"/>
<path d="M296.438 196.5V192.875C296.438 188.91 299.666 185.625 303.688 185.625C307.652 185.625 310.938 188.91 310.938 192.875V196.5H312.75C314.732 196.5 316.375 198.143 316.375 200.125V211C316.375 213.039 314.732 214.625 312.75 214.625H294.625C292.586 214.625 291 213.039 291 211V200.125C291 198.143 292.586 196.5 294.625 196.5H296.438ZM299.156 196.5H308.219V192.875C308.219 190.383 306.18 188.344 303.688 188.344C301.139 188.344 299.156 190.383 299.156 192.875V196.5ZM293.719 211C293.719 211.51 294.115 211.906 294.625 211.906H312.75C313.203 211.906 313.656 211.51 313.656 211V200.125C313.656 199.672 313.203 199.219 312.75 199.219H294.625C294.115 199.219 293.719 199.672 293.719 200.125V211Z" fill="#5C5C5C"/>
<path d="M343.597 216.353C343.271 216.353 342.846 216.324 342.506 216.268V214.243C342.804 214.299 343.186 214.313 343.526 214.313C344.928 214.313 345.777 213.676 346.33 211.92L346.613 211.014L340.963 195.735H343.597L347.788 208.295H348.015L352.192 195.735H354.783L348.822 211.935C347.562 215.361 346.301 216.353 343.597 216.353ZM363.747 211.269C359.399 211.269 356.709 208.267 356.709 203.382V203.354C356.709 198.454 359.399 195.466 363.747 195.466C368.094 195.466 370.784 198.454 370.784 203.354V203.382C370.784 208.267 368.094 211.269 363.747 211.269ZM363.747 209.088C366.635 209.088 368.264 206.979 368.264 203.382V203.354C368.264 199.743 366.635 197.647 363.747 197.647C360.858 197.647 359.229 199.743 359.229 203.354V203.382C359.229 206.979 360.858 209.088 363.747 209.088ZM379.719 211.269C376.25 211.269 374.466 209.23 374.466 205.619V195.735H376.93V205.024C376.93 207.771 377.921 209.088 380.356 209.088C383.047 209.088 384.477 207.446 384.477 204.77V195.735H386.941V211H384.477V208.72H384.25C383.5 210.349 381.957 211.269 379.719 211.269ZM391.543 211V195.735H394.007V198.001H394.233C394.814 196.401 396.244 195.466 398.312 195.466C398.779 195.466 399.303 195.523 399.543 195.565V197.958C399.034 197.874 398.566 197.817 398.028 197.817C395.678 197.817 394.007 199.304 394.007 201.541V211H391.543ZM408.408 211.269C404.131 211.269 401.398 208.168 401.398 203.325V203.297C401.398 198.553 404.117 195.466 408.394 195.466C412.104 195.466 414.327 197.604 414.78 200.323L414.794 200.408H412.344L412.33 200.366C411.948 198.865 410.588 197.647 408.394 197.647C405.646 197.647 403.919 199.856 403.919 203.297V203.325C403.919 206.837 405.675 209.088 408.394 209.088C410.447 209.088 411.75 208.182 412.316 206.483L412.344 206.398L414.78 206.384L414.751 206.54C414.128 209.301 412.075 211.269 408.408 211.269ZM424.664 211.269C420.316 211.269 417.626 208.267 417.626 203.382V203.354C417.626 198.454 420.316 195.466 424.664 195.466C429.011 195.466 431.701 198.454 431.701 203.354V203.382C431.701 208.267 429.011 211.269 424.664 211.269ZM424.664 209.088C427.552 209.088 429.181 206.979 429.181 203.382V203.354C429.181 199.743 427.552 197.647 424.664 197.647C421.775 197.647 420.146 199.743 420.146 203.354V203.382C420.146 206.979 421.775 209.088 424.664 209.088ZM441.797 211.269C437.45 211.269 434.76 208.267 434.76 203.382V203.354C434.76 198.454 437.45 195.466 441.797 195.466C446.145 195.466 448.835 198.454 448.835 203.354V203.382C448.835 208.267 446.145 211.269 441.797 211.269ZM441.797 209.088C444.686 209.088 446.314 206.979 446.314 203.382V203.354C446.314 199.743 444.686 197.647 441.797 197.647C438.909 197.647 437.28 199.743 437.28 203.354V203.382C437.28 206.979 438.909 209.088 441.797 209.088ZM452.8 211V189.675H455.264V211H452.8ZM465.232 211.269C461.834 211.269 459.498 209.626 459.214 207.106H461.735C462.146 208.38 463.363 209.216 465.317 209.216C467.371 209.216 468.829 208.239 468.829 206.851V206.823C468.829 205.789 468.05 205.067 466.167 204.614L463.802 204.047C460.942 203.368 459.653 202.122 459.653 199.927V199.913C459.653 197.378 462.089 195.466 465.332 195.466C468.532 195.466 470.755 197.066 471.095 199.559H468.673C468.348 198.355 467.158 197.52 465.317 197.52C463.505 197.52 462.174 198.454 462.174 199.799V199.828C462.174 200.861 462.938 201.513 464.737 201.952L467.087 202.518C469.962 203.212 471.35 204.458 471.35 206.639V206.667C471.35 209.386 468.702 211.269 465.232 211.269ZM476.476 192.79C475.541 192.79 474.776 192.025 474.776 191.091C474.776 190.156 475.541 189.392 476.476 189.392C477.41 189.392 478.175 190.156 478.175 191.091C478.175 192.025 477.41 192.79 476.476 192.79ZM475.229 211V195.735H477.693V211H475.229ZM487.761 211.113C484.618 211.113 483.301 209.952 483.301 207.035V197.774H480.894V195.735H483.301V191.785H485.85V195.735H489.191V197.774H485.85V206.412C485.85 208.21 486.473 208.933 488.059 208.933C488.498 208.933 488.738 208.918 489.191 208.876V210.972C488.71 211.057 488.243 211.113 487.761 211.113ZM498.877 211.269C494.516 211.269 491.882 208.21 491.882 203.424V203.41C491.882 198.695 494.572 195.466 498.721 195.466C502.87 195.466 505.391 198.553 505.391 203.113V204.076H494.402C494.473 207.233 496.215 209.074 498.934 209.074C501.001 209.074 502.275 208.097 502.686 207.177L502.743 207.049H505.207L505.178 207.163C504.654 209.23 502.474 211.269 498.877 211.269ZM498.707 197.661C496.441 197.661 494.714 199.205 494.445 202.107H502.884C502.629 199.091 500.958 197.661 498.707 197.661ZM511.225 211.142C510.219 211.142 509.384 210.306 509.384 209.301C509.384 208.281 510.219 207.46 511.225 207.46C512.244 207.46 513.065 208.281 513.065 209.301C513.065 210.306 512.244 211.142 511.225 211.142ZM523.501 211.269C519.225 211.269 516.492 208.168 516.492 203.325V203.297C516.492 198.553 519.211 195.466 523.487 195.466C527.197 195.466 529.42 197.604 529.874 200.323L529.888 200.408H527.438L527.424 200.366C527.042 198.865 525.682 197.647 523.487 197.647C520.74 197.647 519.013 199.856 519.013 203.297V203.325C519.013 206.837 520.769 209.088 523.487 209.088C525.541 209.088 526.843 208.182 527.41 206.483L527.438 206.398L529.874 206.384L529.845 206.54C529.222 209.301 527.169 211.269 523.501 211.269ZM539.757 211.269C535.41 211.269 532.72 208.267 532.72 203.382V203.354C532.72 198.454 535.41 195.466 539.757 195.466C544.104 195.466 546.795 198.454 546.795 203.354V203.382C546.795 208.267 544.104 211.269 539.757 211.269ZM539.757 209.088C542.646 209.088 544.274 206.979 544.274 203.382V203.354C544.274 199.743 542.646 197.647 539.757 197.647C536.869 197.647 535.24 199.743 535.24 203.354V203.382C535.24 206.979 536.869 209.088 539.757 209.088ZM550.618 211V195.735H553.082V198.058H553.309C553.988 196.415 555.433 195.466 557.429 195.466C559.497 195.466 560.941 196.557 561.649 198.143H561.875C562.697 196.528 564.438 195.466 566.548 195.466C569.664 195.466 571.405 197.25 571.405 200.451V211H568.941V201.017C568.941 198.766 567.908 197.647 565.755 197.647C563.631 197.647 562.229 199.247 562.229 201.187V211H559.766V200.635C559.766 198.822 558.52 197.647 556.594 197.647C554.597 197.647 553.082 199.389 553.082 201.541V211H550.618Z" fill="#636381"/>
<path d="M905 1H12C5.92487 1 1 5.92487 1 12V265C1 271.075 5.92485 276 12 276H905C911.075 276 916 271.075 916 265V12C916 5.92487 911.075 1 905 1Z" stroke="#E3E1FF" stroke-width="2"/>
<defs>
<filter id="filter0_i_2540_6587" x="38" y="51" width="30.2402" height="30.2397" filterUnits="userSpaceOnUse" color-interpolation-filters="sRGB">
<feFlood flood-opacity="0" result="BackgroundImageFix"/>
<feBlend mode="normal" in="SourceGraphic" in2="BackgroundImageFix" result="shape"/>
<feColorMatrix in="SourceAlpha" type="matrix" values="0 0 0 0 0 0 0 0 0 0 0 0 0 0 0 0 0 0 127 0" result="hardAlpha"/>
<feOffset/>
<feGaussianBlur stdDeviation="7.55994"/>
<feComposite in2="hardAlpha" operator="arithmetic" k2="-1" k3="1"/>
<feColorMatrix type="matrix" values="0 0 0 0 0.92549 0 0 0 0 0.427451 0 0 0 0 0.384314 0 0 0 1 0"/>
<feBlend mode="normal" in2="shape" result="effect1_innerShadow_2540_6587"/>
</filter>
<filter id="filter1_i_2540_6587" x="88.3994" y="51" width="30.2402" height="30.2397" filterUnits="userSpaceOnUse" color-interpolation-filters="sRGB">
<feFlood flood-opacity="0" result="BackgroundImageFix"/>
<feBlend mode="normal" in="SourceGraphic" in2="BackgroundImageFix" result="shape"/>
<feColorMatrix in="SourceAlpha" type="matrix" values="0 0 0 0 0 0 0 0 0 0 0 0 0 0 0 0 0 0 127 0" result="hardAlpha"/>
<feOffset/>
<feGaussianBlur stdDeviation="7.55994"/>
<feComposite in2="hardAlpha" operator="arithmetic" k2="-1" k3="1"/>
<feColorMatrix type="matrix" values="0 0 0 0 0.960784 0 0 0 0 0.768627 0 0 0 0 0.317647 0 0 0 1 0"/>
<feBlend mode="normal" in2="shape" result="effect1_innerShadow_2540_6587"/>
</filter>
<filter id="filter2_i_2540_6587" x="138.799" y="51" width="30.2402" height="30.2397" filterUnits="userSpaceOnUse" color-interpolation-filters="sRGB">
<feFlood flood-opacity="0" result="BackgroundImageFix"/>
<feBlend mode="normal" in="SourceGraphic" in2="BackgroundImageFix" result="shape"/>
<feColorMatrix in="SourceAlpha" type="matrix" values="0 0 0 0 0 0 0 0 0 0 0 0 0 0 0 0 0 0 127 0" result="hardAlpha"/>
<feOffset/>
<feGaussianBlur stdDeviation="7.55994"/>
<feComposite in2="hardAlpha" operator="arithmetic" k2="-1" k3="1"/>
<feColorMatrix type="matrix" values="0 0 0 0 0.407843 0 0 0 0 0.8 0 0 0 0 0.345098 0 0 0 1 0"/>
<feBlend mode="normal" in2="shape" result="effect1_innerShadow_2540_6587"/>
</filter>
</defs>
</svg>
