<svg width="40" height="40" viewBox="0 0 40 40" fill="none" xmlns="http://www.w3.org/2000/svg">
<path d="M21.875 10.5469L30.625 18.6719C31.0156 18.9844 31.25 19.5312 31.25 20C31.25 20.5469 31.0156 21.0156 30.625 21.4062L21.875 29.5312C21.0938 30.2344 19.9219 30.2344 19.2188 29.4531C18.5156 28.6719 18.5156 27.5 19.2969 26.7969L24.5312 21.875H11.25C10.1562 21.875 9.375 21.0938 9.375 20C9.375 18.9844 10.1562 18.125 11.25 18.125H24.5312L19.2969 13.2812C18.5156 12.5781 18.5156 11.4062 19.2188 10.625C19.9219 9.84375 21.0938 9.84375 21.875 10.5469ZM20 0C31.0156 0 40 8.98438 40 20C40 31.0938 31.0156 40 20 40C8.90625 40 0 31.0938 0 20C0 8.98438 8.90625 0 20 0ZM20 36.25C28.9062 36.25 36.25 28.9844 36.25 20C36.25 11.0938 28.9062 3.75 20 3.75C11.0156 3.75 3.75 11.0938 3.75 20C3.75 28.9844 11.0156 36.25 20 36.25Z" fill="#4FB22D"/>
</svg>
