<svg width="44" height="44" viewBox="0 0 44 44" fill="none" xmlns="http://www.w3.org/2000/svg">
<path fill-rule="evenodd" clip-rule="evenodd" d="M22 44C34.1503 44 44 34.1503 44 22C44 9.84974 34.1503 0 22 0C9.84974 0 0 9.84974 0 22C0 34.1503 9.84974 44 22 44ZM22.0001 37.7142C30.1003 37.7142 36.6667 31.1477 36.6667 23.0476C36.6667 14.9474 30.1003 8.38091 22.0001 8.38091C13.8999 8.38091 7.33342 14.9474 7.33342 23.0476C7.33342 31.1477 13.8999 37.7142 22.0001 37.7142Z" fill="white" fill-opacity="0.25"/>
<path d="M40 22C40 31.9844 31.9141 40 22 40C12.0156 40 4 31.9844 4 22C4 12.0859 12.0156 4 22 4C31.9141 4 40 12.0859 40 22ZM17.2188 14.4062C16.6562 14.6875 16.375 15.25 16.375 15.8125V28.1875C16.375 28.8203 16.6562 29.3828 17.2188 29.6641C17.7109 30.0156 18.4141 29.9453 18.9062 29.6641L29.0312 23.4766C29.5234 23.125 29.875 22.6328 29.875 22C29.875 21.4375 29.5234 20.875 29.0312 20.5938L18.9062 14.4062C18.4141 14.0547 17.7109 14.0547 17.2188 14.3359V14.4062Z" fill="white"/>
</svg>
