<svg width="40" height="40" viewBox="0 0 40 40" fill="none" xmlns="http://www.w3.org/2000/svg">
<path d="M18.9844 26.5625C18.125 27.4219 16.7969 27.4219 15.9375 26.5625L10.9375 21.5625C10.0781 20.7031 10.0781 19.375 10.9375 18.5156C11.7969 17.6562 13.125 17.6562 13.9844 18.5156L17.5 21.9531L25.9375 13.5156C26.7969 12.6562 28.125 12.6562 28.9844 13.5156C29.8438 14.375 29.8438 15.7031 28.9844 16.5625L18.9844 26.5625ZM40 20C40 31.0938 31.0156 40 20 40C8.90625 40 0 31.0938 0 20C0 8.98438 8.90625 0 20 0C31.0156 0 40 8.98438 40 20ZM20 3.75C11.0156 3.75 3.75 11.0938 3.75 20C3.75 28.9844 11.0156 36.25 20 36.25C28.9062 36.25 36.25 28.9844 36.25 20C36.25 11.0938 28.9062 3.75 20 3.75Z" fill="#ACABC0"/>
</svg>
