<svg width="150" height="150" viewBox="0 0 150 150" fill="none" xmlns="http://www.w3.org/2000/svg">
<path fill-rule="evenodd" clip-rule="evenodd" d="M108.593 35.5095C102.292 33.4628 95.4721 32.5003 88.1582 32.5003C87.4863 32.5003 86.8194 32.5081 86.1575 32.5238H55.4851C54.7735 32.516 54.0228 32.5208 53.2395 32.5257C45.6638 32.5738 35.0315 32.6413 27.1872 21.567C18.277 11.4056 -2.98009 24.3967 15.0192 42.3725C29.1006 54.3334 33.2702 56.2006 51.1173 56.1674L89.6289 56.1678C94.5317 56.3063 98.8278 57.1524 102.517 58.7058C106.568 60.4114 109.775 63.1972 112.138 67.0632C114.501 70.8156 115.682 75.5344 115.682 81.2197C115.682 89.6341 113.207 95.9448 108.256 100.152C103.305 104.245 96.6098 106.292 88.1706 106.292C79.6189 106.292 72.8675 104.302 67.9165 100.323C63.0781 96.2291 60.6588 89.9183 60.6588 81.3903C60.6588 76.6893 61.3747 72.6613 62.8065 69.3062C63.6586 67.3098 62.3459 64.6571 60.1944 64.6571H39.5586C38.4474 64.6571 37.4579 65.3836 37.1668 66.4672C35.9498 70.9986 35.3412 75.9161 35.3412 81.2197C35.3412 89.2929 36.7478 96.5133 39.5608 102.881C42.3739 109.135 46.1997 114.252 51.0381 118.231C55.8766 122.097 61.4465 125.054 67.7477 127.1C74.049 129.033 80.8566 130 88.1706 130C95.4846 130 102.292 129.033 108.593 127.1C114.895 125.054 120.465 122.097 125.303 118.231C130.142 114.365 133.967 109.305 136.78 103.051C139.593 96.6839 141 89.4066 141 81.2197C141 73.1466 139.593 65.983 136.78 59.7292C133.967 53.3616 130.142 48.2448 125.303 44.3787C120.465 40.5127 114.895 37.5563 108.593 35.5095Z" fill="#4D35FA"/>
</svg>
