<svg width="187" height="64" viewBox="0 0 187 64" fill="none" xmlns="http://www.w3.org/2000/svg">
<path fill-rule="evenodd" clip-rule="evenodd" d="M87.6993 63.4308C88.837 63.4308 89.7593 62.5409 89.7593 61.4427V2.1506C89.7593 1.05262 88.837 0.162537 87.6993 0.162537H78.0708C76.9331 0.162537 76.0108 1.05262 76.0108 2.1506V61.4427C76.0108 62.5409 76.9331 63.4308 78.0708 63.4308H87.6993ZM54.2637 14.7494C50.8646 13.6949 47.1857 13.199 43.2404 13.199C42.8777 13.199 42.5181 13.203 42.1611 13.2111H25.6152C25.2314 13.2071 24.8264 13.2096 24.4038 13.2121H24.4037C20.3171 13.2369 14.5818 13.2716 10.3503 7.56619C5.5438 2.33102 -5.92307 9.02407 3.78643 18.2852C11.3824 24.4475 13.6317 25.4094 23.2591 25.3923V25.3925H44.0338C46.6785 25.4639 48.996 25.8998 50.9862 26.7001C53.1714 27.5788 54.9012 29.0141 56.1758 31.0058C57.4504 32.9391 58.0878 35.3701 58.0878 38.2991C58.0878 42.6343 56.7525 45.8855 54.0817 48.0531C51.4109 50.1619 47.7995 51.2165 43.2471 51.2165C38.6338 51.2165 34.992 50.1913 32.3212 48.1409C29.7111 46.0321 28.4061 42.7808 28.4061 38.3872C28.4061 35.9653 28.7923 33.89 29.5647 32.1614C30.0243 31.1329 29.3162 29.7662 28.1556 29.7662H17.0239C16.4245 29.7662 15.8907 30.1405 15.7337 30.6988C15.0771 33.0333 14.7489 35.567 14.7489 38.2991C14.7489 42.4587 15.5076 46.1786 17.0251 49.4592C18.5425 52.681 20.6063 55.3173 23.2164 57.3677C25.8264 59.3594 28.831 60.8827 32.2302 61.9369C35.6292 62.9328 39.3017 63.4308 43.2471 63.4308C47.1924 63.4308 50.8646 62.9328 54.2637 61.9369C57.6631 60.8827 60.6674 59.3594 63.2778 57.3677C65.8877 55.3757 67.9514 52.7688 69.4688 49.547C70.9865 46.2664 71.7452 42.5171 71.7452 38.2991C71.7452 34.1399 70.9865 30.4493 69.4688 27.2273C67.9514 23.9467 65.8877 21.3106 63.2778 19.3188C60.6674 17.327 57.6631 15.8038 54.2637 14.7494ZM108.876 61.4427C108.876 62.5409 107.953 63.4308 106.816 63.4308H97.1875C96.0498 63.4308 95.1275 62.5409 95.1275 61.4427V2.1506C95.1275 1.05262 96.0498 0.162537 97.1875 0.162537H106.816C107.953 0.162537 108.876 1.05262 108.876 2.1506V61.4427ZM125.932 63.4308C127.07 63.4308 127.992 62.5409 127.992 61.4427V18.5431C127.992 17.4451 127.07 16.5551 125.932 16.5551H116.304C115.166 16.5551 114.244 17.4451 114.244 18.5431V61.4427C114.244 62.5409 115.166 63.4308 116.304 63.4308H125.932ZM186.201 41.9022H147.871C146.62 41.9022 145.641 42.9784 145.992 44.1376C146.67 46.3762 147.842 48.1206 149.508 49.3711C151.754 50.9528 155.092 51.7436 159.524 51.7436C166.25 51.7436 170.558 50.3391 172.449 47.5295C172.918 46.8326 173.661 46.2958 174.523 46.2958H184.219C185.462 46.2958 186.432 47.3555 186.139 48.5218C185.048 52.8599 182.549 56.3358 178.644 58.9494C174.091 61.9369 167.718 63.4308 159.524 63.4308C153.636 63.4308 148.659 62.4934 144.592 60.6189C140.525 58.7441 137.399 55.9616 135.214 52.2711C133.089 48.5218 132.027 43.9523 132.027 38.5628C132.027 34.5208 132.634 30.9473 133.848 27.8424C135.122 24.7376 136.913 22.1307 139.22 20.0218C141.587 17.9128 144.47 16.3311 147.87 15.2766C151.329 14.1636 155.214 13.6071 159.524 13.6071C166.443 13.6071 172.21 15.1595 176.823 18.2643C179.129 19.7875 181.041 21.6035 182.559 23.7124C184.137 25.8213 185.199 27.901 185.745 29.9514C186.292 32.0017 186.656 34.1108 186.838 36.2781C187.056 38.1674 187.054 39.8686 186.833 41.3815C186.789 41.6837 186.517 41.9022 186.201 41.9022ZM159.524 25.2941C153.458 25.2941 149.338 27.0522 147.164 30.5685C146.454 31.7166 147.45 33.0269 148.835 33.0269H170.141C171.547 33.0269 172.558 31.679 171.85 30.5063C171.809 30.4374 171.766 30.3696 171.724 30.3029C171.238 29.4827 170.51 28.6626 169.539 27.8424C168.568 27.0223 167.232 26.4072 165.533 25.9971C163.833 25.5284 161.83 25.2941 159.524 25.2941ZM125.932 11.476C127.07 11.476 127.992 10.5859 127.992 9.48796V2.19837C127.992 1.10039 127.07 0.210297 125.932 0.210297H116.304C115.166 0.210297 114.244 1.10039 114.244 2.19837V9.48796C114.244 10.5859 115.166 11.476 116.304 11.476H125.932Z" fill="#14101F"/>
</svg>
