<svg width="982" height="46" viewBox="0 0 982 46" fill="none" xmlns="http://www.w3.org/2000/svg">
<g clip-path="url(#clip0_2633_8906)">
<rect width="330.673" height="45.6343" transform="matrix(-1 0 0 1 982 0.182861)" fill="white"/>
<path d="M651.331 -23.4652V0.28913H698.566V-47.2195H651.331V-23.4652Z" fill="#AFA7FF"/>
<path d="M651.331 23.0503V45.8172H698.566V0.283447H651.331V23.0503Z" fill="#C3BDFF"/>
<path d="M745.806 -23.4652V0.28913H793.042V-47.2195H745.806V-23.4652Z" fill="#EBE9FF"/>
<path d="M745.806 23.0503V45.8172H793.042V0.283447H745.806V23.0503Z" fill="#EBE9FF"/>
<path d="M770.352 31.8457C768.169 31.3304 765.981 32.6819 765.465 34.8644C764.95 37.047 766.302 39.2341 768.485 39.7495C770.668 40.2648 772.856 38.9133 773.371 36.7307C773.887 34.5482 772.535 32.3611 770.352 31.8457Z" fill="#D7D3FF"/>
<path d="M773.478 22.9763C773.443 20.7339 771.596 18.9444 769.353 18.9794C767.11 19.0144 765.32 20.8606 765.355 23.103C765.39 25.3455 767.236 27.135 769.479 27.1C771.723 27.065 773.513 25.2188 773.478 22.9763Z" fill="#D7D3FF"/>
<path d="M770.331 6.32544C768.146 5.81928 765.963 7.18007 765.457 9.36487C764.951 11.5497 766.312 13.7311 768.497 14.2373C770.683 14.7435 772.865 13.3827 773.371 11.1979C773.878 9.01307 772.516 6.83161 770.331 6.32544Z" fill="#D7D3FF"/>
<path d="M757.091 31.8457C754.908 31.3304 752.72 32.6819 752.205 34.8644C751.689 37.047 753.041 39.2341 755.224 39.7495C757.407 40.2648 759.595 38.9133 760.111 36.7307C760.626 34.5482 759.274 32.3611 757.091 31.8457Z" fill="#D7D3FF"/>
<path d="M760.217 22.9763C760.182 20.7339 758.335 18.9444 756.092 18.9794C753.849 19.0144 752.059 20.8606 752.094 23.103C752.129 25.3455 753.976 27.135 756.219 27.1C758.462 27.065 760.252 25.2188 760.217 22.9763Z" fill="#D7D3FF"/>
<path d="M757.071 6.32544C754.885 5.81928 752.703 7.18007 752.197 9.36487C751.691 11.5497 753.052 13.7311 755.237 14.2373C757.423 14.7435 759.605 13.3827 760.111 11.1979C760.617 9.01307 759.256 6.83161 757.071 6.32544Z" fill="#D7D3FF"/>
<path d="M783.611 31.8457C781.428 31.3304 779.24 32.6819 778.725 34.8644C778.209 37.047 779.561 39.2341 781.744 39.7495C783.927 40.2648 786.115 38.9133 786.631 36.7307C787.146 34.5482 785.794 32.3611 783.611 31.8457Z" fill="#D7D3FF"/>
<path d="M786.737 22.9763C786.702 20.7339 784.856 18.9444 782.612 18.9794C780.369 19.0144 778.579 20.8606 778.614 23.103C778.649 25.3455 780.496 27.135 782.739 27.1C784.982 27.065 786.772 25.2188 786.737 22.9763Z" fill="#D7D3FF"/>
<path d="M783.591 6.32544C781.405 5.81928 779.223 7.18007 778.717 9.36487C778.211 11.5497 779.572 13.7311 781.757 14.2373C783.943 14.7435 786.125 13.3827 786.631 11.1979C787.137 9.01307 785.776 6.83161 783.591 6.32544Z" fill="#D7D3FF"/>
<path d="M840.285 -23.4652V0.28913H887.521V-47.2195H840.285V-23.4652Z" fill="#EBE9FF"/>
<path d="M839.943 0.514937H887.527C887.527 -25.7853 866.225 -47.1021 839.943 -47.1021V0.514937Z" fill="#D7D3FF"/>
<path d="M745.973 -23.4443V-47.4034H793.616V0.514893H745.973V-23.4443Z" fill="#EBE9FF"/>
<path d="M745.628 -47.6311H793.622C793.622 -21.1041 772.136 0.396484 745.628 0.396484V-47.6311Z" fill="#D7D3FF"/>
<path d="M840.285 23.0503V45.8172H887.521V0.283447H840.285V23.0503Z" fill="#D7D3FF"/>
<path d="M934.764 -23.4652V0.28913H982V-47.2195H934.764V-23.4652Z" fill="#EBE9FF"/>
<path d="M934.764 23.0503V45.8172H982V0.283447H934.764V23.0503Z" fill="#D7D3FF"/>
<path d="M698.566 -23.4652V0.28913H745.802V-47.2195H698.566V-23.4652Z" fill="#9A92FF"/>
<path d="M698.566 23.0503V45.8172H745.802V0.283447H698.566V23.0503Z" fill="#D7D3FF"/>
<path d="M793.042 -23.4652V0.28913H840.277V-47.2195H793.042V-23.4652Z" fill="#9A92FF"/>
<path d="M793.042 23.0503V45.8172H840.277V0.283447H793.042V23.0503Z" fill="#C3BDFF"/>
<path d="M887.521 -23.4652V0.28913H934.757V-47.2195H887.521V-23.4652Z" fill="#9A92FF"/>
<path d="M887.521 23.0503V45.8172H934.757V0.283447H887.521V23.0503Z" fill="#EBE9FF"/>
<path d="M698.547 -30.2046V0.271874H668.073C668.073 -16.5611 681.715 -30.2046 698.547 -30.2046Z" fill="#C3BDFF"/>
<path d="M934.714 -30.2046V0.271874H904.24C904.24 -16.5611 917.882 -30.2046 934.714 -30.2046Z" fill="#4A3AFF"/>
<path d="M698.547 -17.3403V0.271786H680.936C680.936 -9.4542 688.822 -17.3403 698.547 -17.3403Z" fill="#EBE9FF"/>
<path d="M934.761 -30.2046C951.592 -30.2046 965.235 -16.5611 965.235 0.271875H934.761V-30.2046Z" fill="#D7D3FF"/>
<path d="M838.752 45.8111H825.163C825.163 28.0931 810.799 13.7345 793.082 13.7345V45.8111H793.053V0.11792C818.29 0.11792 838.752 20.5739 838.752 45.8111Z" fill="#4A3AFF"/>
<path d="M863.89 38.3029C872.306 38.3029 879.127 31.4775 879.127 23.061C879.127 14.6445 872.306 7.82275 863.89 7.82275C855.475 7.82275 848.653 14.6445 848.653 23.061C848.653 31.4775 855.475 38.3029 863.89 38.3029Z" fill="#AFA7FF"/>
<path d="M863.89 29.8608C867.646 29.8608 870.689 26.8175 870.689 23.061C870.689 19.3045 867.646 16.2612 863.89 16.2612C860.134 16.2612 857.091 19.3045 857.091 23.061C857.091 26.8175 860.134 29.8608 863.89 29.8608Z" fill="#4A3AFF"/>
<path d="M698.58 30.7636V0.287109H668.105C668.105 17.1165 681.752 30.7636 698.58 30.7636Z" fill="#7266FF"/>
<path d="M934.747 30.7636V0.287109H904.272C904.272 17.1165 917.919 30.7636 934.747 30.7636Z" fill="#7266FF"/>
<path d="M698.58 17.9083V0.283447H680.955C680.959 10.0186 688.849 17.9083 698.58 17.9083Z" fill="#C3BDFF"/>
<path d="M934.761 30.7636C951.592 30.7636 965.235 17.1201 965.235 0.287109H934.761V30.7636Z" fill="#4A3AFF"/>
<path d="M730.788 -14.1008H745.8V0.283467H730.788V-14.1008Z" fill="#D7D3FF"/>
<path fill-rule="evenodd" clip-rule="evenodd" d="M698.745 0.11792H722.421L746.098 45.817H722.421L698.745 0.11792Z" fill="#4A3AFF"/>
<path d="M792.932 -23.381V-47.1353H840.168V0.373291H792.932V-23.381Z" fill="#AFA7FF"/>
<path d="M792.821 -47.0723H806.941C806.941 -28.6724 821.867 -13.7612 840.276 -13.7612V-47.0723H840.306V0.379395C814.083 0.379395 792.821 -20.8638 792.821 -47.0723Z" fill="#C3BDFF"/>
</g>
<g clip-path="url(#clip1_2633_8906)">
<rect width="325.663" height="45.6343" transform="translate(325.663 0.182861)" fill="white"/>
<path d="M651.323 22.9989V46.3933H604.803V-0.395508H651.323V22.9989Z" fill="#D7D3FF"/>
<path d="M634.471 16.5569H621.626V29.4028H634.471V16.5569Z" fill="#4A3AFF"/>
<path d="M558.279 22.9989V46.3933H511.759V-0.395508H558.279V22.9989Z" fill="#AFA7FF"/>
<path d="M534.105 31.651C536.255 31.1434 538.41 32.4745 538.918 34.624C539.425 36.7735 538.094 38.9274 535.944 39.435C533.794 39.9425 531.639 38.6115 531.131 36.462C530.624 34.3125 531.955 32.1586 534.105 31.651Z" fill="#EBE9FF"/>
<path d="M531.027 22.9158C531.061 20.7073 532.88 18.9449 535.089 18.9794C537.298 19.0138 539.061 20.8321 539.027 23.0405C538.992 25.249 537.174 27.0114 534.964 26.9769C532.755 26.9425 530.992 25.1242 531.027 22.9158Z" fill="#EBE9FF"/>
<path d="M534.126 6.51731C536.278 6.01881 538.427 7.35899 538.926 9.51069C539.424 11.6624 538.084 13.8108 535.931 14.3093C533.779 14.8078 531.63 13.4676 531.131 11.3159C530.633 9.16422 531.973 7.01581 534.126 6.51731Z" fill="#EBE9FF"/>
<path d="M547.164 31.651C549.315 31.1434 551.469 32.4745 551.977 34.624C552.485 36.7735 551.153 38.9274 549.003 39.435C546.853 39.9425 544.698 38.6115 544.191 36.462C543.683 34.3125 545.014 32.1586 547.164 31.651Z" fill="#EBE9FF"/>
<path d="M544.086 22.9158C544.121 20.7073 545.94 18.9449 548.149 18.9794C550.358 19.0138 552.121 20.8321 552.086 23.0405C552.052 25.249 550.233 27.0114 548.024 26.9769C545.815 26.9425 544.052 25.1242 544.086 22.9158Z" fill="#EBE9FF"/>
<path d="M547.185 6.51731C549.337 6.01881 551.486 7.35899 551.985 9.51069C552.483 11.6624 551.143 13.8108 548.99 14.3093C546.838 14.8078 544.689 13.4676 544.19 11.3159C543.692 9.16422 545.032 7.01581 547.185 6.51731Z" fill="#EBE9FF"/>
<path d="M521.046 31.6508C523.196 31.1432 525.351 32.4743 525.859 34.6237C526.366 36.7732 525.035 38.9272 522.885 39.4347C520.735 39.9423 518.58 38.6113 518.072 36.4618C517.565 34.3123 518.896 32.1583 521.046 31.6508Z" fill="#EBE9FF"/>
<path d="M517.968 22.9155C518.002 20.7071 519.821 18.9447 522.03 18.9791C524.239 19.0136 526.002 20.8318 525.968 23.0403C525.933 25.2488 524.114 27.0111 521.905 26.9767C519.696 26.9422 517.933 25.124 517.968 22.9155Z" fill="#EBE9FF"/>
<path d="M521.066 6.51707C523.218 6.01857 525.367 7.35875 525.866 9.51045C526.365 11.6621 525.024 13.8106 522.872 14.3091C520.719 14.8076 518.57 13.4674 518.072 11.3157C517.573 9.16397 518.914 7.01557 521.066 6.51707Z" fill="#EBE9FF"/>
<path d="M465.232 22.9989V46.3933H418.711V-0.395508H465.232V22.9989Z" fill="#AFA7FF"/>
<path d="M458.28 23.0085L441.733 6.46143L425.187 23.0085L441.733 39.5555L458.28 23.0085Z" fill="#7266FF"/>
<path d="M372.183 22.9989V46.3933H325.663V-0.395508H372.183V22.9989Z" fill="#AFA7FF"/>
<path d="M604.803 22.9989V46.3933H558.283V-0.395508H604.803V22.9989Z" fill="#9A92FF"/>
<path d="M511.758 22.9989V46.3933H465.238V-0.395508H511.758V22.9989Z" fill="#9A92FF"/>
<path d="M418.711 22.9989V46.3933H372.191V-0.395508H418.711V22.9989Z" fill="#9A92FF"/>
<path d="M604.776 16.3289C588.199 16.3289 574.763 29.7656 574.763 46.3436H604.776V16.3289Z" fill="#D7D3FF"/>
<path d="M588.297 -0.410156C571.72 -0.410156 558.284 13.0266 558.284 29.6045H588.297V-0.410156Z" fill="#EBE9FF"/>
<path d="M325.5 -0.3125H372.168V46.3876L325.5 -0.3125Z" fill="#4A3AFF"/>
<path d="M418.695 30.0506C422.574 30.0506 425.718 26.906 425.718 23.0269C425.718 19.1478 422.574 16.0032 418.695 16.0032C414.815 16.0032 411.671 19.1478 411.671 23.0269C411.671 26.906 414.815 30.0506 418.695 30.0506Z" fill="#C3BDFF"/>
<path d="M395.182 30.0506C399.061 30.0506 402.205 26.906 402.205 23.0269C402.205 19.1478 399.061 16.0032 395.182 16.0032C391.303 16.0032 388.158 19.1478 388.158 23.0269C388.158 26.906 391.303 30.0506 395.182 30.0506Z" fill="#C3BDFF"/>
<path fill-rule="evenodd" clip-rule="evenodd" d="M511.747 -0.377686H488.495L465.243 46.4527H488.495L511.747 -0.377686Z" fill="#EBE9FF"/>
</g>
<g clip-path="url(#clip2_2633_8906)">
<rect width="325.663" height="45.6343" transform="translate(0 0.182861)" fill="white"/>
<path d="M0.00384164 22.9437V46.3959H46.5239V-0.508545H0.00384164V22.9437Z" fill="#867CFF"/>
<path d="M93.0478 22.9437V46.3959H139.568V-0.508545H93.0478V22.9437Z" fill="#EBE9FF"/>
<path d="M186.095 22.9437V46.3959H232.615V-0.508545H186.095V22.9437Z" fill="#867CFF"/>
<path d="M279.143 22.9437V46.3959H325.663V-0.508545H279.143V22.9437Z" fill="#EBE9FF"/>
<path d="M46.5239 22.9437V46.3959H93.0439V-0.508545H46.5239V22.9437Z" fill="#D7D3FF"/>
<path d="M139.568 22.9437V46.3959H186.088V-0.508545H139.568V22.9437Z" fill="#D7D3FF"/>
<path d="M232.615 22.9437V46.3959H279.135V-0.508545H232.615V22.9437Z" fill="#D7D3FF"/>
<path d="M279.484 46.5173H232.621C232.621 20.6156 253.6 -0.378174 279.484 -0.378174V46.5173Z" fill="#4A3AFF"/>
<path d="M46.5371 16.3606V46.3753H76.5495C76.5495 29.7973 63.1138 16.3606 46.5371 16.3606Z" fill="#4A3AFF"/>
<path d="M46.5371 29.0303V46.3755H63.8811C63.8811 36.7969 56.115 29.0303 46.5371 29.0303Z" fill="#EBE9FF"/>
<path d="M46.4909 16.3606C29.9142 16.3606 16.4785 29.7973 16.4785 46.3753H46.4909V16.3606Z" fill="#9A92FF"/>
<path d="M46.4909 29.0303C36.913 29.0303 29.147 36.7969 29.147 46.3755H46.4909V29.0303Z" fill="#C3BDFF"/>
<path d="M216.865 7.92603C212.723 7.92603 209.362 11.287 209.362 15.4297C209.362 19.5724 212.723 22.9334 216.865 22.9334C221.007 22.9334 224.368 19.5724 224.368 15.4297C224.368 11.2834 221.007 7.92603 216.865 7.92603Z" fill="#AFA7FF"/>
<path d="M216.865 13.6538C215.885 13.6538 215.089 14.4499 215.089 15.4298C215.089 16.4096 215.885 17.2057 216.865 17.2057C217.845 17.2057 218.641 16.4096 218.641 15.4298C218.641 14.4463 217.845 13.6538 216.865 13.6538Z" fill="#C3BDFF"/>
<path d="M201.859 7.92603C197.717 7.92603 194.356 11.287 194.356 15.4297C194.356 19.5724 197.717 22.9334 201.859 22.9334C206.001 22.9334 209.362 19.5724 209.362 15.4297C209.362 11.2834 206.001 7.92603 201.859 7.92603Z" fill="#4A3AFF"/>
<path d="M201.859 13.6538C200.879 13.6538 200.083 14.4499 200.083 15.4298C200.083 16.4096 200.879 17.2057 201.859 17.2057C202.839 17.2057 203.635 16.4096 203.635 15.4298C203.635 14.4463 202.839 13.6538 201.859 13.6538Z" fill="#C3BDFF"/>
<path d="M216.865 22.9336C212.723 22.9336 209.362 26.2946 209.362 30.4373C209.362 34.58 212.723 37.9409 216.865 37.9409C221.007 37.9409 224.368 34.58 224.368 30.4373C224.368 26.291 221.007 22.9336 216.865 22.9336Z" fill="#4A3AFF"/>
<path d="M216.865 28.6611C215.885 28.6611 215.089 29.4572 215.089 30.4371C215.089 31.4169 215.885 32.213 216.865 32.213C217.845 32.213 218.641 31.4169 218.641 30.4371C218.641 29.4572 217.845 28.6611 216.865 28.6611Z" fill="#C3BDFF"/>
<path d="M201.859 22.9336C197.717 22.9336 194.356 26.2946 194.356 30.4373C194.356 34.58 197.717 37.9409 201.859 37.9409C206.001 37.9409 209.362 34.58 209.362 30.4373C209.362 26.291 206.001 22.9336 201.859 22.9336Z" fill="#AFA7FF"/>
<path d="M201.859 28.6611C200.879 28.6611 200.083 29.4572 200.083 30.4371C200.083 31.4169 200.879 32.213 201.859 32.213C202.839 32.213 203.635 31.4169 203.635 30.4371C203.635 29.4572 202.839 28.6611 201.859 28.6611Z" fill="#C3BDFF"/>
<path d="M94.5724 46.4137H107.956C107.956 28.9642 122.102 14.8231 139.55 14.8231V46.4137H139.579V1.41284C114.725 1.41284 94.5724 21.5588 94.5724 46.4137Z" fill="#4A3AFF"/>
<path d="M186.07 16.3606C169.493 16.3606 156.058 29.7973 156.058 46.3753H186.07V16.3606Z" fill="#C3BDFF"/>
<path d="M169.592 -0.378174C153.015 -0.378174 139.579 13.0586 139.579 29.6365H169.592V-0.378174Z" fill="#AFA7FF"/>
<path d="M302.436 37.9443C294.148 37.9443 287.43 31.2224 287.43 22.9334C287.43 14.6444 294.148 7.92603 302.436 7.92603C310.725 7.92603 317.443 14.6444 317.443 22.9334C317.443 31.2224 310.725 37.9443 302.436 37.9443Z" fill="#9A92FF"/>
<path d="M302.436 29.6303C298.737 29.6303 295.74 26.6332 295.74 22.9336C295.74 19.234 298.737 16.2368 302.436 16.2368C306.136 16.2368 309.133 19.234 309.133 22.9336C309.133 26.6332 306.136 29.6303 302.436 29.6303Z" fill="#4A3AFF"/>
</g>
<defs>
<clipPath id="clip0_2633_8906">
<rect width="330.673" height="45.6343" fill="white" transform="matrix(-1 0 0 1 982 0.182861)"/>
</clipPath>
<clipPath id="clip1_2633_8906">
<rect width="325.663" height="45.6343" fill="white" transform="translate(325.663 0.182861)"/>
</clipPath>
<clipPath id="clip2_2633_8906">
<rect width="325.663" height="45.6343" fill="white" transform="translate(0 0.182861)"/>
</clipPath>
</defs>
</svg>
