<svg width="39" height="276" viewBox="0 0 39 276" fill="none" xmlns="http://www.w3.org/2000/svg">
<g style="mix-blend-mode:lighten" clip-path="url(#clip0_2628_6812)">
<rect width="38.9999" height="276" fill="white"/>
<path d="M0.00284183 19.8758L0.00284562 39.7516L39.7429 39.7515L39.7429 0L0.00283805 7.56822e-06L0.00284183 19.8758Z" fill="#867CFF"/>
<path d="M0.0033301 99.2321L0.00333388 119.059L39.7434 119.059L39.7434 79.4053L0.00332633 79.4053L0.0033301 99.2321Z" fill="#867CFF"/>
<path d="M25.3555 93.7849L14.3826 93.7849L14.3826 104.672L25.3555 104.672L25.3555 93.7849Z" fill="#EBE9FF"/>
<path d="M0.00284182 178.527L0.0028456 198.354L39.7429 198.354L39.7429 158.7L0.00283805 158.7L0.00284182 178.527Z" fill="#EBE9FF"/>
<path d="M39.7401 59.5709L39.7401 79.3977L7.55175e-06 79.3977L0 39.7441L39.7401 39.7441L39.7401 59.5709Z" fill="#EBE9FF"/>
<path d="M39.7401 138.878L39.7401 158.705L7.55175e-06 158.705L0 119.051L39.7401 119.051L39.7401 138.878Z" fill="#AFA7FF"/>
<path d="M39.7401 218.173L39.7401 237.999L7.55175e-06 238L0 198.346L39.7401 198.346L39.7401 218.173Z" fill="#EBE9FF"/>
<path d="M39.7401 256.997L39.7401 276L7.23783e-06 276L0 237.995L39.7401 237.995L39.7401 256.997Z" fill="#D7D3FF"/>
<path d="M39.715 14.2969C25.5542 14.2969 14.0767 25.6845 14.0767 39.7344L39.715 39.7344L39.715 14.2969Z" fill="#9A92FF"/>
<path d="M39.743 212.548C25.5823 212.548 14.1047 223.935 14.1047 237.985L39.743 237.985L39.743 212.548Z" fill="#D7D3FF"/>
<path d="M39.7151 25.0339C31.5331 25.0339 24.8989 31.6162 24.8989 39.7341L39.7151 39.7341L39.7151 25.0339Z" fill="#C3BDFF"/>
<path d="M39.715 65.1846C25.5542 65.1846 14.0767 53.7969 14.0767 39.7471L39.715 39.7471L39.715 65.1846Z" fill="#4A3AFF"/>
<path d="M39.743 263.436C25.5823 263.436 14.1047 252.048 14.1047 237.998L39.743 237.998L39.743 263.436Z" fill="#4A3AFF"/>
<path d="M39.7267 54.4547C31.54 54.4547 24.8987 47.8694 24.8987 39.7439L39.7267 39.7439L39.7267 54.4547Z" fill="#9A92FF"/>
<path d="M-0.13916 119.122L39.7269 119.122L39.7269 158.7L-0.13916 119.122Z" fill="#4A3AFF"/>
<path d="M39.7268 198.333L-0.139257 198.334L-0.139265 158.755L39.7268 198.333Z" fill="#C3BDFF"/>
</g>
<defs>
<clipPath id="clip0_2628_6812">
<rect width="38.9999" height="276" fill="white"/>
</clipPath>
</defs>
</svg>
