<?xml version="1.0" encoding="UTF-8" standalone="no"?><!DOCTYPE svg PUBLIC "-//W3C//DTD SVG 1.1//EN" "http://www.w3.org/Graphics/SVG/1.1/DTD/svg11.dtd"><svg width="100%" height="100%" viewBox="0 0 834 500" version="1.1" xmlns="http://www.w3.org/2000/svg" xmlns:xlink="http://www.w3.org/1999/xlink" xml:space="preserve" xmlns:serif="http://www.serif.com/" style="fill-rule:evenodd;clip-rule:evenodd;stroke-linejoin:round;stroke-miterlimit:2;"><path d="M9.668,246.799c-0,-23.763 6.38,-42.367 19.141,-55.811c12.76,-13.444 29.231,-20.166 49.414,-20.166c13.216,0 25.13,3.158 35.742,9.473c10.612,6.315 18.701,15.12 24.267,26.416c5.567,11.296 8.35,24.105 8.35,38.428c0,14.518 -2.93,27.506 -8.789,38.965c-5.859,11.458 -14.16,20.133 -24.902,26.025c-10.743,5.892 -22.331,8.838 -34.766,8.838c-13.477,-0 -25.521,-3.255 -36.133,-9.766c-10.612,-6.51 -18.652,-15.397 -24.121,-26.66c-5.469,-11.263 -8.203,-23.177 -8.203,-35.742Zm19.531,0.293c0,17.252 4.639,30.843 13.916,40.771c9.278,9.929 20.915,14.893 34.912,14.893c14.258,-0 25.993,-5.013 35.205,-15.039c9.213,-10.026 13.819,-24.251 13.819,-42.676c-0,-11.654 -1.97,-21.826 -5.908,-30.518c-3.939,-8.691 -9.701,-15.429 -17.286,-20.214c-7.584,-4.786 -16.097,-7.178 -25.537,-7.178c-13.411,-0 -24.951,4.606 -34.619,13.818c-9.668,9.212 -14.502,24.593 -14.502,46.143Z" style="fill-rule:nonzero;"/><rect x="168.359" y="173.361" width="17.578" height="143.164" style="fill-rule:nonzero;"/><rect x="212.793" y="173.361" width="17.578" height="143.164" style="fill-rule:nonzero;"/><path d="M257.715,193.576l-0,-20.215l17.578,0l-0,20.215l-17.578,0Zm-0,122.949l-0,-103.711l17.578,0l-0,103.711l-17.578,0Z" style="fill-rule:nonzero;"/><path d="M373.047,283.127l18.164,2.246c-2.865,10.612 -8.171,18.848 -15.918,24.707c-7.747,5.859 -17.643,8.789 -29.688,8.789c-15.169,0 -27.197,-4.671 -36.084,-14.014c-8.886,-9.342 -13.33,-22.444 -13.33,-39.306c0,-17.448 4.493,-30.99 13.477,-40.625c8.984,-9.636 20.638,-14.453 34.961,-14.453c13.867,-0 25.195,4.72 33.984,14.16c8.789,9.44 13.184,22.721 13.184,39.844c-0,1.041 -0.033,2.604 -0.098,4.687l-77.344,0c0.652,11.393 3.874,20.117 9.668,26.172c5.795,6.055 13.021,9.082 21.68,9.082c6.445,0 11.947,-1.693 16.504,-5.078c4.557,-3.386 8.171,-8.789 10.84,-16.211Zm-57.715,-28.418l57.91,0c-0.781,-8.724 -2.995,-15.267 -6.64,-19.629c-5.599,-6.771 -12.859,-10.156 -21.778,-10.156c-8.073,-0 -14.86,2.702 -20.361,8.105c-5.501,5.404 -8.545,12.631 -9.131,21.68Z" style="fill-rule:nonzero;"/></svg>